inDegrees=yes
name=ik_S57_A05_T02
DataType=double
version=3
OpenSimVersion=4.3-2021-08-27-4bc7ad9
endheader
time	pelvis_tilt	pelvis_list	pelvis_rotation	pelvis_tx	pelvis_ty	pelvis_tz	hip_flexion_r	hip_adduction_r	hip_rotation_r	knee_angle_r	knee_angle_r_beta	ankle_angle_r	subtalar_angle_r	mtp_angle_r	hip_flexion_l	hip_adduction_l	hip_rotation_l	knee_angle_l	knee_angle_l_beta	ankle_angle_l	subtalar_angle_l	mtp_angle_l	lumbar_extension	lumbar_bending	lumbar_rotation	arm_flex_r	arm_add_r	arm_rot_r	elbow_flex_r	pro_sup_r	wrist_flex_r	wrist_dev_r	arm_flex_l	arm_add_l	arm_rot_l	elbow_flex_l	pro_sup_l	wrist_flex_l	wrist_dev_l
7.199999999999934	-1.420600440174075	0.6785260406159165	34.45899118537984	0	0.9399999999999999	0	20.98222940404627	-8.002334697180393	-6.657244085122692	24.94599484623356	0.4353897452523122	0	0	0	20.98222940404627	-8.002334697180393	-6.657244085122692	24.94599484623356	0.4353897452523122	0	0	0	-3.936021095370729	-2.417366395624808	5.020372996822495	55.32938094940683	-4.407929105823198	-6.644217391304839	36.45398978797422	94.68603196190307	0	0	18.02595367164649	-12.72205598974926	16.0825486718911	53.44540650231062	179.9874357827721	0	0
7.219999999999934	-1.399133659039012	0.6232605215545559	34.29917718499268	0	0.9399999999999999	0	20.9869446776693	-8.003512906264772	-6.65853514616452	24.95068048372433	0.4354715250540811	-9.935499678915521e-54	0	0	20.9869446776693	-8.003512906264772	-6.65853514616452	24.95068048372433	0.4354715250540811	-9.935499678915521e-54	0	0	-3.946801970440526	-2.484629578827414	5.177170310008878	55.36237557169108	-4.338470382890534	-6.728605325455216	36.45846963905983	94.63525827464233	0	0	18.10840299675317	-12.84414157648258	16.14880164093688	53.48753095815864	179.9874241105562	0	0
7.239999999999934	-1.385873575356511	0.5930504477220762	34.22183159815535	0	0.9399999999999999	0	20.99522318517967	-8.005615335303181	-6.660823814254931	24.95879353539745	0.4356131245181614	0	0	0	20.99522318517967	-8.005615335303181	-6.660823814254931	24.95879353539745	0.4356131245181614	0	0	0	-3.950245171865317	-2.521933743594118	5.267344112318821	55.36207499519718	-4.232668955530709	-6.730929290214624	36.42278023257712	94.29129606571286	0	0	18.14385267263596	-12.90180988098609	16.18420013386022	53.48371821328871	179.9874244509973	0	0
7.259999999999933	-1.385548440604923	0.5462651564422366	34.44354452419972	0	0.9399999999999999	0	21.00716882744346	-8.008734111189634	-6.664181679421043	24.97021301496174	0.4358124320354224	0	0	0	21.00716882744346	-8.008734111189634	-6.664181679421043	24.97021301496174	0.4358124320354224	0	0	0	-3.973547198399903	-2.541618343876545	5.026798374822834	55.97271986915379	-3.511895632125052	-5.5368004215766	35.77783346387728	93.58652421413581	0	0	18.19630916031344	-12.9678770735216	16.18010584392629	53.4839501784394	179.987442378333	0	0
7.279999999999933	-1.376498446149343	0.4925792524849682	34.63369328333033	0	0.9399999999999999	0	21.0161814404788	-8.011076672562689	-6.666708720438738	24.97885651649299	0.435963289596044	0	0	0	21.0161814404788	-8.011076672562689	-6.666708720438738	24.97885651649299	0.435963289596044	0	0	0	-3.995595386123784	-2.576540656801742	4.820557125847839	56.05451054382081	-2.862835760551902	-4.8514899635851	35.68968080706122	93.16640708794088	0	0	18.24454820324457	-13.03901017250983	16.13539628747755	53.49392145397267	179.9874607532191	0	0
7.299999999999932	-1.35789927376642	0.4584462161612903	34.69830115626987	0	0.9399999999999999	0	21.02436714931484	-8.013113210575623	-6.66894535801783	24.98700086512179	0.4361054352950468	0	0	0	21.02436714931484	-8.013113210575623	-6.66894535801783	24.98700086512179	0.4361054352950468	0	0	0	-4.000004480773956	-2.611686736912964	4.783190899883128	56.06190780960821	-2.752296692343317	-4.849935698260432	35.80449057184287	93.22752481884517	0	0	18.25120312749388	-13.09171364583677	16.07904994584351	53.53177507598134	179.9874781552364	0	0
7.319999999999932	-1.351732722706946	0.421745028717405	34.89423459585615	0	0.9399999999999999	0	21.03313191291051	-8.015379455490759	-6.671395764274901	24.99543639648725	0.4362526630915294	0	0	0	21.03313191291051	-8.015379455490759	-6.671395764274901	24.99543639648725	0.4362526630915294	0	0	0	-4.015078519631266	-2.6320809512797	4.603235300781623	56.08806415901935	-2.327970800558656	-4.454394959475135	35.99531434294972	93.30233992877268	0	0	18.29719128717015	-13.11950388097539	16.01213576751876	53.54330427838782	179.987506378983	0	0
7.339999999999931	-1.327965365224308	0.3808886213540315	35.14591889638594	0	0.9399999999999999	0	21.04090341703855	-8.017392559540305	-6.673571121908931	25.0028994889788	0.4363829186278877	0	0	0	21.04090341703855	-8.017392559540305	-6.673571121908931	25.0028994889788	0.4363829186278877	0	0	0	-4.018203446552184	-2.67066830201951	4.489735525384635	56.14703003486343	-1.929862176912313	-4.117453156768632	36.21545888609925	93.45083918738243	0	0	18.34837413898784	-13.17357854617823	16.07364617078526	53.57003551042438	179.9875292443052	0	0
7.359999999999931	-1.330209639528845	0.3750258455513979	35.35682483187332	0	0.9399999999999999	0	21.04826972022181	-8.019306219948652	-6.675636876851853	25.0099511754406	0.4365059937744644	0	0	0	21.04826972022181	-8.019306219948652	-6.675636876851853	25.0099511754406	0.4365059937744644	0	0	0	-4.021110005217903	-2.659276123652327	4.285340552749848	56.41367727850195	-0.9133558832799592	-3.23386553780031	36.23525556345007	93.63126655688041	0	0	18.37712670229579	-13.17812012706113	15.98761491744868	53.56827767070456	179.9875469027825	0	0
7.379999999999931	-1.322378965120037	0.3416790516017723	35.64049747189028	0	0.9399999999999999	0	21.05556477686138	-8.021199746094556	-6.677681811314184	25.0169364963199	0.4366279106231165	0	0	0	21.05556477686138	-8.021199746094556	-6.677681811314184	25.0169364963199	0.4366279106231165	0	0	0	-4.033138130530892	-2.682197990629418	4.170672372362441	56.58974868137539	-0.2141920705194253	-2.664210036299972	36.70043850481954	94.29930417963008	0	0	18.48969570960059	-13.21540415128975	16.05825029238251	53.57223235093296	179.9875894902131	0	0
7.39999999999993	-1.308838303008436	0.3106700838384932	35.93798216418601	0	0.9399999999999999	0	21.06315024710772	-8.023168285116647	-6.679808140670233	25.02419736738318	0.4367546367297336	0	0	0	21.06315024710772	-8.023168285116647	-6.679808140670233	25.02419736738318	0.4367546367297336	0	0	0	-4.039840463117582	-2.709020995772869	4.093154202538255	56.74353191918684	0.3577614979617443	-2.127123094123535	36.81793683318867	94.45904600685066	0	0	18.60571920055296	-13.24903619434006	16.1828015730494	53.57900754900214	179.9876138293446	0	0
7.41999999999993	-1.289630782736546	0.2860282090135591	36.24797850977986	0	0.9399999999999999	0	21.0684583562842	-8.024542251399343	-6.681293928591645	25.02928762019446	0.4368434784010492	0	0	0	21.0684583562842	-8.024542251399343	-6.681293928591645	25.02928762019446	0.4368434784010492	0	0	0	-4.038547971621344	-2.735858862188145	4.03550819704289	56.92090408217772	0.9272730044322982	-1.593183447877858	36.89064505799578	94.52909059887016	0	0	18.72761500573111	-13.27493272060489	16.27740890447919	53.57249124783786	179.9876573476886	0	0
7.439999999999929	-1.268141245362087	0.2574141743532289	36.59700944858169	0	0.9399999999999999	0	21.07557977178173	-8.026387119298551	-6.683288433525792	25.03610902373127	0.4369625343523739	0	0	0	21.07557977178173	-8.026387119298551	-6.683288433525792	25.03610902373127	0.4369625343523739	0	0	0	-4.03807880703751	-2.767598563140177	3.985677803043707	57.09661985546175	1.531971379737264	-1.119774969959344	36.88703149716897	94.56501434070275	0	0	18.78376900120034	-13.28358770027224	16.58829958936623	53.49775606043964	179.9876656735539	0	0
7.459999999999929	-1.243844346456387	0.2230219981397568	36.90765058796639	0	0.9399999999999999	0	21.08622402825172	-8.029154664152514	-6.686276471896537	25.04626555148531	0.4371397992022519	0	0	0	21.08622402825172	-8.029154664152514	-6.686276471896537	25.04626555148531	0.4371397992022519	0	0	0	-4.039173754931372	-2.806912410828592	3.965995929399508	57.33982446092876	1.991384256822425	-0.7794052823888331	36.50590639561327	94.39848305169524	0	0	18.97794703593732	-13.33483347152618	16.39992668717726	53.51581631461611	179.9877574187294	0	0
7.479999999999928	-1.228222511569785	0.1875571727213588	37.25063686238641	0	0.9399999999999999	0	21.09196125116355	-8.030640055038575	-6.687883136761031	25.05175722846244	0.4372356470469588	0	0	0	21.09196125116355	-8.030640055038575	-6.687883136761031	25.05175722846244	0.4372356470469588	0	0	0	-4.048363460238548	-2.841957631680282	3.940224933837983	57.54536955367686	2.639131821884118	-0.2977475922569485	36.47334735605678	94.4402666601306	0	0	19.13387788559245	-13.3410894717536	16.43661536391946	53.48411253194086	179.9878103104023	0	0
7.499999999999928	-1.208099911437913	0.1487215148891942	37.58586671766264	0	0.9399999999999999	0	21.0961191777605	-8.031698365007133	-6.689035837303424	25.05579545836031	0.4373061274546293	0	0	0	21.0961191777605	-8.031698365007133	-6.689035837303424	25.05579545836031	0.4373061274546293	0	0	0	-4.057308720485345	-2.881791017280816	3.916156496930244	57.54774814334702	2.624346171652893	-0.4184417612401147	36.63034690568455	94.5393801297914	0	0	19.30153706614133	-13.3921829746627	16.47093001302207	53.48835961856597	179.9878545746204	0	0
